<svg width="167" height="42" viewBox="0 0 167 42" fill="none" xmlns="http://www.w3.org/2000/svg">
<path d="M45.8462 22.8717V29H43.0257V11.8973H49.795C51.7437 11.8973 53.248 12.3503 54.3078 13.2563C55.3848 14.1622 55.9232 15.5127 55.9232 17.3076C55.9232 19.0854 55.3848 20.4615 54.3078 21.4358C53.248 22.3931 51.7437 22.8717 49.795 22.8717H45.8462ZM45.8462 20.4615H49.436C50.4274 20.4615 51.171 20.3162 51.6668 20.0256C52.1796 19.735 52.5215 19.3589 52.6924 18.8973C52.8805 18.4187 52.9745 17.923 52.9745 17.4101C52.9745 16.8802 52.8805 16.3759 52.6924 15.8973C52.5215 15.4187 52.1796 15.0341 51.6668 14.7435C51.171 14.4358 50.4274 14.2819 49.436 14.2819H45.8462V20.4615ZM63.8404 29.3846C62.9686 29.3846 62.1309 29.265 61.3275 29.0256C60.5241 28.7863 59.866 28.3675 59.3531 27.7692C58.8403 27.1709 58.5839 26.3333 58.5839 25.2564C58.5839 23.8376 58.9942 22.7863 59.8147 22.1025C60.6523 21.4016 61.7976 21.0512 63.2506 21.0512C64.0882 21.0512 64.8233 21.1367 65.4558 21.3076C66.1053 21.4786 66.6524 21.6922 67.0968 21.9487V20.7435C67.0968 19.8375 66.8148 19.1794 66.2506 18.7691C65.7036 18.3418 64.9344 18.1281 63.9429 18.1281C63.2079 18.1281 62.4557 18.2478 61.6865 18.4871C60.9344 18.7093 60.3104 19.0255 59.8147 19.4358V16.923C60.2933 16.6153 60.9856 16.3589 61.8916 16.1537C62.7976 15.9486 63.7463 15.846 64.7378 15.846C65.5412 15.846 66.3276 15.9742 67.0968 16.2306C67.8831 16.4871 68.5242 16.9315 69.0199 17.564C69.5327 18.1965 69.7891 19.0512 69.7891 20.1281L69.7635 26.282C69.7635 27.1196 69.4985 27.7607 68.9686 28.2051C68.4558 28.6496 67.7549 28.9573 66.866 29.1282C65.9771 29.2991 64.9686 29.3846 63.8404 29.3846ZM61.2506 25.1282C61.2506 25.641 61.3959 26.0598 61.6865 26.3846C61.9771 26.6923 62.3361 26.9231 62.7634 27.0769C63.2079 27.2137 63.6694 27.282 64.1481 27.282C65.1395 27.282 65.8746 27.2137 66.3532 27.0769C66.8489 26.9231 67.0968 26.6068 67.0968 26.1282V23.641C66.7036 23.47 66.2592 23.3333 65.7635 23.2307C65.2848 23.1281 64.772 23.0769 64.225 23.0769C62.2421 23.0769 61.2506 23.7606 61.2506 25.1282ZM78.6744 29.3846C76.7941 29.3504 75.3582 28.7778 74.3667 27.6667C73.3923 26.5555 72.9052 24.9743 72.9052 22.923C72.9052 21.47 73.0846 20.282 73.4436 19.3589C73.8197 18.4358 74.324 17.7178 74.9565 17.205C75.606 16.6922 76.3325 16.3418 77.136 16.1537C77.9565 15.9486 78.8026 15.846 79.6745 15.846C80.5804 15.846 81.4181 15.9657 82.1873 16.205C82.9565 16.4443 83.5634 16.8118 84.0078 17.3076C84.4694 17.7862 84.7001 18.4102 84.7001 19.1794V29.3846C84.7001 30.2735 84.5036 31.094 84.1104 31.8462C83.7343 32.6154 83.1018 33.2223 82.2129 33.6667C81.3411 34.1112 80.1702 34.3334 78.7001 34.3334C77.777 34.3334 76.965 34.2565 76.2642 34.1026C75.5804 33.9659 75.0077 33.8206 74.5462 33.6667V31.2051C74.9565 31.359 75.512 31.5214 76.2129 31.6923C76.9308 31.8804 77.6915 31.9744 78.495 31.9744C79.5035 31.9744 80.2557 31.8462 80.7514 31.5898C81.2642 31.3505 81.6061 31.0257 81.777 30.6154C81.948 30.2222 82.0334 29.7949 82.0334 29.3333V28.4359C81.5719 28.7265 81.042 28.9573 80.4437 29.1282C79.8454 29.2991 79.2556 29.3846 78.6744 29.3846ZM79.1103 27.1795C79.6061 27.1795 80.1104 27.1196 80.6232 27C81.136 26.8803 81.6061 26.6923 82.0334 26.4359V19.6922C82.0334 19.0426 81.777 18.6238 81.2642 18.4358C80.7514 18.2307 80.1702 18.1281 79.5206 18.1281C78.4608 18.1281 77.6488 18.3418 77.0847 18.7691C76.5377 19.1965 76.1616 19.7691 75.9565 20.4871C75.7513 21.188 75.6488 21.9743 75.6488 22.8461C75.6488 24.1453 75.9308 25.1965 76.4949 26C77.059 26.7863 77.9308 27.1795 79.1103 27.1795ZM93.0874 29.3846C92.2156 29.3846 91.378 29.265 90.5746 29.0256C89.7712 28.7863 89.113 28.3675 88.6002 27.7692C88.0874 27.1709 87.831 26.3333 87.831 25.2564C87.831 23.8376 88.2412 22.7863 89.0618 22.1025C89.8994 21.4016 91.0447 21.0512 92.4977 21.0512C93.3353 21.0512 94.0704 21.1367 94.7028 21.3076C95.3524 21.4786 95.8994 21.6922 96.3439 21.9487V20.7435C96.3439 19.8375 96.0618 19.1794 95.4977 18.7691C94.9507 18.3418 94.1815 18.1281 93.19 18.1281C92.455 18.1281 91.7028 18.2478 90.9336 18.4871C90.1814 18.7093 89.5575 19.0255 89.0618 19.4358V16.923C89.5404 16.6153 90.2327 16.3589 91.1387 16.1537C92.0447 15.9486 92.9934 15.846 93.9849 15.846C94.7883 15.846 95.5746 15.9742 96.3439 16.2306C97.1302 16.4871 97.7712 16.9315 98.267 17.564C98.7798 18.1965 99.0362 19.0512 99.0362 20.1281L99.0106 26.282C99.0106 27.1196 98.7456 27.7607 98.2157 28.2051C97.7029 28.6496 97.002 28.9573 96.1131 29.1282C95.2242 29.2991 94.2157 29.3846 93.0874 29.3846ZM90.4977 25.1282C90.4977 25.641 90.643 26.0598 90.9336 26.3846C91.2242 26.6923 91.5832 26.9231 92.0105 27.0769C92.455 27.2137 92.9165 27.282 93.3951 27.282C94.3866 27.282 95.1216 27.2137 95.6003 27.0769C96.096 26.9231 96.3439 26.6068 96.3439 26.1282V23.641C95.9507 23.47 95.5063 23.3333 95.0105 23.2307C94.5319 23.1281 94.0191 23.0769 93.4721 23.0769C91.4891 23.0769 90.4977 23.7606 90.4977 25.1282ZM102.947 29V11.8973H105.793V26.5897H113.973V29H102.947ZM122.13 29.3846C120.232 29.3846 118.719 28.812 117.591 27.6667C116.48 26.5042 115.924 24.829 115.924 22.641C115.924 20.4016 116.446 18.7093 117.489 17.564C118.548 16.4016 120.018 15.8204 121.899 15.8204C123.283 15.8204 124.403 16.1281 125.258 16.7435C126.113 17.3589 126.728 18.2221 127.104 19.3332C127.497 20.4273 127.685 21.7093 127.668 23.1794H118.617C118.702 24.4444 119.078 25.4102 119.745 26.0769C120.412 26.7265 121.352 27.0513 122.565 27.0513C123.42 27.0513 124.198 26.9487 124.899 26.7436C125.617 26.5213 126.224 26.2735 126.719 26V28.5128C126.104 28.7863 125.42 29 124.668 29.1538C123.916 29.3077 123.07 29.3846 122.13 29.3846ZM121.822 18.0255C120.95 18.0255 120.249 18.2563 119.719 18.7178C119.189 19.1623 118.848 19.9828 118.694 21.1794H124.924C124.822 20.0854 124.514 19.2905 124.001 18.7948C123.506 18.2819 122.779 18.0255 121.822 18.0255ZM134.22 29L128.81 16.1281H131.707L135.759 26.0513L139.554 16.1281H142.349L136.913 29H134.22ZM149.699 29.3846C147.802 29.3846 146.289 28.812 145.16 27.6667C144.049 26.5042 143.494 24.829 143.494 22.641C143.494 20.4016 144.015 18.7093 145.058 17.564C146.118 16.4016 147.588 15.8204 149.468 15.8204C150.853 15.8204 151.972 16.1281 152.827 16.7435C153.682 17.3589 154.297 18.2221 154.673 19.3332C155.067 20.4273 155.255 21.7093 155.237 23.1794H146.186C146.272 24.4444 146.648 25.4102 147.314 26.0769C147.981 26.7265 148.921 27.0513 150.135 27.0513C150.99 27.0513 151.767 26.9487 152.468 26.7436C153.186 26.5213 153.793 26.2735 154.289 26V28.5128C153.673 28.7863 152.99 29 152.237 29.1538C151.485 29.3077 150.639 29.3846 149.699 29.3846ZM149.391 18.0255C148.519 18.0255 147.819 18.2563 147.289 18.7178C146.759 19.1623 146.417 19.9828 146.263 21.1794H152.494C152.391 20.0854 152.084 19.2905 151.571 18.7948C151.075 18.2819 150.349 18.0255 149.391 18.0255Z" fill="#2E2E2E"/>
<rect y="0.161987" width="9.45407" height="41.5979" rx="4.72703" fill="#6FCF97"/>
<path d="M13.2358 17.6989C13.2358 15.3234 15.1616 13.3977 17.5371 13.3977C19.9126 13.3977 21.8383 15.3234 21.8383 17.6989V29.1689C21.8383 31.5444 19.9126 33.4701 17.5371 33.4701C15.1616 33.4701 13.2358 31.5444 13.2358 29.1689V17.6989Z" fill="#27AE60"/>
<rect x="13.2358" y="2.05286" width="8.60246" height="10.0362" rx="4.30123" fill="#27AE60"/>
<rect x="25.7773" y="15.7194" width="8.60246" height="10.0362" rx="4.30123" fill="#6FCF97"/>
</svg>
