<svg width="155" height="29" viewBox="0 0 155 29" fill="none" xmlns="http://www.w3.org/2000/svg">
<path d="M0.575439 27.9998H10.0686C14.5701 27.9998 18.2193 24.3506 18.2193 19.8491H8.72612C4.22463 19.8491 0.575439 23.4983 0.575439 27.9998Z" fill="#F22BB2"/>
<path d="M1 8.15069V20.137C5.5015 20.137 9.15069 16.4878 9.15069 11.9863V0C4.64919 0 1 3.64919 1 8.15069Z" fill="#8C30F5"/>
<path d="M27.4246 0H17.9314C13.4299 0 9.78076 3.64919 9.78076 8.15068H19.2739C23.7754 8.15068 27.4246 4.5015 27.4246 0Z" fill="#FE9A22"/>
<path d="M27.4246 19.3701V7.38379C22.9231 7.38379 19.2739 11.033 19.2739 15.5345V27.5208C23.7754 27.5208 27.4246 23.8716 27.4246 19.3701Z" fill="#2EC5CE"/>
<path d="M41.321 23H45.5398V17.5795H48.4034C52.4006 17.5795 54.8977 15.2102 54.8977 11.5881C54.8977 8 52.4517 5.54545 48.5312 5.54545H41.321V23ZM45.5398 14.2557V8.94602H47.6193C49.5114 8.94602 50.5256 9.96875 50.5256 11.5881C50.5256 13.1989 49.5114 14.2557 47.6193 14.2557H45.5398ZM60.1989 23.2216C62.0227 23.2216 63.2841 22.5142 64 21.1761H64.1023V23H68.0227V14.1023C68.0227 11.3324 65.5597 9.73864 62.2273 9.73864C58.7074 9.73864 56.7131 11.5114 56.3807 13.8977L60.2244 14.0341C60.4034 13.1989 61.0938 12.6875 62.1932 12.6875C63.2159 12.6875 63.8636 13.1818 63.8636 14.0597V14.1023C63.8636 14.9034 62.9943 15.0739 60.7614 15.2699C58.1108 15.4915 55.8949 16.4716 55.8949 19.3693C55.8949 21.9602 57.6932 23.2216 60.1989 23.2216ZM61.4858 20.4943C60.5227 20.4943 59.8409 20.0341 59.8409 19.1648C59.8409 18.321 60.5057 17.8097 61.6903 17.6307C62.4659 17.5199 63.4205 17.3494 63.8892 17.1023V18.3466C63.8892 19.625 62.8153 20.4943 61.4858 20.4943ZM76.6733 28.1818C80.6193 28.1818 83.3125 26.3835 83.3125 23.0511V9.90909H79.1619V12.1506H79.0426C78.5398 10.9489 77.3977 9.73864 75.3352 9.73864C72.5994 9.73864 70.1193 11.8438 70.1193 16.4375C70.1193 20.8864 72.4801 22.821 75.3523 22.821C77.2784 22.821 78.5653 21.9261 79.0597 20.7159H79.2045V23.017C79.2045 24.6875 78.1818 25.2926 76.7841 25.2926C75.446 25.2926 74.6449 24.7812 74.4233 23.9716L70.4773 24.1932C70.7841 26.4858 72.9403 28.1818 76.6733 28.1818ZM76.8011 19.7869C75.2585 19.7869 74.3977 18.5341 74.3977 16.4375C74.3977 14.3494 75.25 12.9943 76.8011 12.9943C78.3267 12.9943 79.2131 14.3153 79.2131 16.4375C79.2131 18.5426 78.3182 19.7869 76.8011 19.7869ZM89.6598 23.2216C91.4837 23.2216 92.745 22.5142 93.4609 21.1761H93.5632V23H97.4837V14.1023C97.4837 11.3324 95.0206 9.73864 91.6882 9.73864C88.1683 9.73864 86.174 11.5114 85.8416 13.8977L89.6854 14.0341C89.8643 13.1989 90.5547 12.6875 91.6541 12.6875C92.6768 12.6875 93.3246 13.1818 93.3246 14.0597V14.1023C93.3246 14.9034 92.4553 15.0739 90.2223 15.2699C87.5717 15.4915 85.3558 16.4716 85.3558 19.3693C85.3558 21.9602 87.1541 23.2216 89.6598 23.2216ZM90.9467 20.4943C89.9837 20.4943 89.3018 20.0341 89.3018 19.1648C89.3018 18.321 89.9666 17.8097 91.1513 17.6307C91.9268 17.5199 92.8814 17.3494 93.3501 17.1023V18.3466C93.3501 19.625 92.2763 20.4943 90.9467 20.4943ZM100.032 23H111.512V19.5739H104.251V5.54545H100.032V23ZM119.815 23.2472C123.25 23.2472 125.509 21.5852 125.986 19.0114L122.159 18.9006C121.835 19.7699 120.983 20.2386 119.892 20.2386C118.29 20.2386 117.301 19.1733 117.301 17.571V17.4602H126.028V16.4205C126.028 12.108 123.403 9.73864 119.688 9.73864C115.733 9.73864 113.193 12.4489 113.193 16.5057C113.193 20.6989 115.699 23.2472 119.815 23.2472ZM117.301 15.0398C117.361 13.7358 118.392 12.7472 119.773 12.7472C121.145 12.7472 122.134 13.7017 122.151 15.0398H117.301ZM140.504 9.90909H136.115L133.695 18.9261H133.558L131.146 9.90909H126.757L131.24 23H136.013L140.504 9.90909ZM147.8 23.2472C151.234 23.2472 153.493 21.5852 153.97 19.0114L150.143 18.9006C149.82 19.7699 148.967 20.2386 147.876 20.2386C146.274 20.2386 145.286 19.1733 145.286 17.571V17.4602H154.013V16.4205C154.013 12.108 151.388 9.73864 147.672 9.73864C143.717 9.73864 141.178 12.4489 141.178 16.5057C141.178 20.6989 143.683 23.2472 147.8 23.2472ZM145.286 15.0398C145.345 13.7358 146.376 12.7472 147.757 12.7472C149.129 12.7472 150.118 13.7017 150.135 15.0398H145.286Z" fill="#472C8A"/>
</svg>
